<svg version="1.0" xmlns="http://www.w3.org/2000/svg"
 width="300.000000pt" height="422.000000pt" viewBox="0 0 300.000000 422.000000"
 preserveAspectRatio="xMidYMid meet">
<g transform="translate(0.000000,422.000000) scale(0.100000,-0.100000)"
fill="#ffffff" stroke="none">
<path d="M670 4118 c-25 -40 -50 -121 -50 -160 0 -42 -15 -34 -39 21 -22 52
-28 111 -11 111 6 0 10 7 10 15 0 25 -30 17 -40 -11 -14 -36 -4 -81 31 -143
27 -46 31 -50 49 -39 11 7 23 29 26 48 9 55 32 119 48 135 13 13 16 9 26 -38
7 -28 10 -70 8 -92 -3 -40 24 -91 43 -79 17 10 67 -26 84 -61 9 -20 15 -38 13
-40 -2 -2 -39 -8 -82 -14 -72 -9 -116 -29 -116 -53 0 -5 -12 -27 -27 -51 -15
-23 -27 -46 -28 -51 -1 -25 -27 -13 -50 23 -22 32 -26 49 -23 86 l3 45 -53 25
c-29 14 -56 25 -60 25 -4 1 -22 14 -40 29 -51 44 -36 47 127 26 34 -4 46 -2
56 12 11 15 8 23 -23 61 -41 50 -78 72 -122 72 -21 0 -30 -5 -30 -16 0 -12 7
-14 28 -9 21 4 36 0 58 -17 36 -28 86 -79 82 -83 -2 -2 -32 3 -68 11 -64 13
-165 9 -175 -7 -16 -25 71 -99 150 -125 38 -13 45 -19 40 -35 -4 -11 -4 -38 0
-60 8 -45 64 -113 91 -107 9 1 36 39 60 83 l43 80 93 10 93 10 -2 33 c-2 58
-73 132 -126 132 -8 0 -12 21 -12 68 -1 73 -29 162 -52 162 -7 0 -22 -15 -33
-32z"/>
<path d="M1410 3842 c-126 -42 -221 -111 -279 -200 -40 -63 -65 -161 -57 -228
5 -47 2 -60 -41 -150 -50 -107 -70 -116 -28 -13 41 101 29 189 -26 189 -28 0
-58 -31 -65 -66 -9 -48 11 -166 31 -180 19 -14 19 -20 1 -27 -11 -4 -13 -1 -9
10 4 10 2 14 -5 10 -6 -5 -16 13 -26 47 -21 70 -57 113 -102 122 -97 18 -74
-88 36 -169 19 -14 20 -17 5 -11 -68 24 -141 10 -175 -33 -25 -32 -25 -38 0
-63 25 -25 45 -25 131 1 106 32 75 48 -36 18 -25 -6 -49 -7 -65 -1 l-24 9 27
25 c31 29 87 40 112 22 13 -10 20 -9 36 4 26 23 24 33 -13 66 -60 52 -81 106
-43 106 19 0 85 -69 85 -90 0 -9 9 -29 20 -43 25 -31 25 -32 0 -67 -11 -15
-17 -29 -14 -32 2 -3 -17 -13 -43 -23 -69 -26 -126 -68 -148 -109 -25 -45 -12
-72 32 -69 27 2 29 1 25 -31 -3 -26 1 -37 20 -51 l23 -18 -27 -57 c-57 -120
-74 -265 -43 -366 8 -27 15 -52 15 -55 0 -9 -172 28 -232 51 -31 11 -75 34
-97 51 -23 16 -45 27 -50 25 -5 -3 -14 -26 -21 -50 l-12 -45 -30 22 c-25 18
-30 19 -38 7 -18 -27 -30 -84 -30 -137 l0 -53 -46 0 -46 0 6 -847 c4 -467 9
-865 12 -886 5 -30 12 -41 32 -48 46 -18 239 -68 447 -115 311 -70 541 -129
650 -166 88 -30 111 -34 195 -33 76 1 110 7 170 29 73 27 395 111 595 156 301
67 519 125 533 143 5 7 12 226 16 527 4 283 9 678 12 878 l6 362 -45 0 -44 0
-7 66 c-7 70 -28 134 -44 134 -5 0 -15 -7 -22 -15 -22 -26 -37 -16 -49 30 -6
25 -16 45 -21 45 -5 0 -29 -15 -53 -33 -49 -37 -146 -71 -263 -91 -44 -8 -80
-13 -82 -12 -1 2 5 17 14 34 22 45 29 168 14 244 -12 65 -69 199 -96 229 -14
15 -13 19 10 42 14 15 26 35 26 45 0 34 -44 86 -112 132 -48 32 -66 50 -62 61
7 24 -50 77 -80 75 -13 0 -22 -4 -19 -8 2 -5 0 -8 -6 -8 -21 0 -43 -48 -36
-80 4 -17 9 -29 12 -26 3 2 14 -4 25 -14 16 -15 26 -17 46 -9 14 5 31 17 38
27 15 19 5 25 112 -75 54 -52 61 -74 33 -107 -14 -17 -38 -20 -66 -10 -9 4
-32 41 -51 82 -19 41 -36 73 -39 71 -2 -3 5 -36 16 -73 23 -76 55 -116 93
-116 63 0 157 -247 141 -370 -9 -68 -36 -150 -50 -150 -6 0 -61 -5 -121 -11
-213 -21 -350 -69 -438 -155 -56 -56 -86 -110 -86 -159 0 -30 -3 -35 -24 -35
-20 0 -25 6 -30 44 -14 90 -97 181 -217 235 -82 37 -172 56 -331 72 l-127 12
-16 46 c-25 72 -29 157 -11 233 20 85 70 196 91 204 9 4 28 31 42 60 28 59 43
69 43 27 0 -34 26 -121 41 -139 34 -41 94 16 86 79 -5 35 -4 37 11 24 30 -27
66 -30 85 -9 25 27 14 60 -44 135 -58 74 -50 93 19 48 27 -17 56 -31 64 -31 9
0 31 16 50 35 l34 36 38 -16 c47 -20 56 -14 19 12 -46 33 -56 33 -96 -6 l-38
-36 -59 32 c-53 28 -60 30 -79 16 -28 -19 -26 -35 5 -72 14 -17 23 -31 19 -31
-3 0 8 -15 24 -32 30 -32 41 -56 21 -43 -5 3 -7 0 -4 -8 8 -23 -13 -30 -38
-13 -31 21 -48 7 -55 -42 -12 -90 -50 -74 -71 28 -14 65 -34 90 -60 74 -17
-11 -56 -74 -46 -74 3 0 -2 -8 -11 -17 -23 -23 -49 -6 -55 37 -5 32 -15 42
-52 54 -10 3 -18 9 -18 14 0 19 59 71 120 106 64 38 65 38 78 17 10 -14 25
-21 46 -21 26 0 36 7 56 40 14 22 32 40 40 40 8 0 46 5 84 10 38 4 78 5 90 1
11 -5 28 -4 37 2 12 8 26 5 53 -11 41 -24 59 -12 21 15 -79 55 -124 112 -140
174 -6 24 -6 24 77 24 90 0 116 -10 146 -52 17 -24 18 -30 6 -41 -11 -10 -18
-10 -32 -1 -29 18 -52 4 -52 -31 0 -31 24 -100 35 -100 8 0 2 74 -7 80 -4 3
-3 12 3 20 8 13 10 13 18 1 8 -12 13 -12 36 3 36 23 50 7 45 -52 -1 -13 4 -29
10 -37 9 -11 16 -11 43 3 18 9 35 22 39 27 5 6 8 3 8 -7 0 -20 -14 -30 -43
-32 -30 -2 -59 -48 -60 -95 -1 -47 -1 -46 -20 -27 -9 9 -47 17 -100 22 -98 8
-137 -7 -137 -50 0 -31 20 -47 70 -53 38 -5 43 -3 79 36 21 22 43 41 49 41 5
0 22 -15 37 -32 15 -18 36 -36 46 -40 30 -12 22 -25 -18 -33 -21 -4 -54 -14
-73 -23 -19 -9 -44 -15 -55 -14 -29 3 -82 -32 -105 -70 -43 -72 -35 -143 12
-100 13 12 39 32 58 44 20 13 44 41 55 65 14 32 29 46 57 58 21 8 40 15 43 15
8 0 -20 -55 -37 -72 -25 -25 -22 -76 7 -127 l26 -44 -118 9 c-186 14 -320 11
-385 -9 -62 -19 -120 -63 -144 -108 -16 -32 -19 -119 -4 -119 6 0 10 16 10 36
0 112 109 184 280 186 47 0 144 -5 216 -12 99 -9 148 -9 205 -1 144 22 249 97
284 202 9 26 22 50 28 52 7 2 9 8 4 13 -4 4 -17 -2 -29 -13 -17 -17 -25 -19
-48 -12 -15 6 -32 21 -38 34 -10 21 -8 31 13 61 34 50 34 76 0 44 -13 -13 -27
-31 -30 -41 -9 -27 -90 -62 -123 -54 -60 15 -100 88 -87 159 6 28 13 35 46 45
25 8 44 21 51 36 9 20 14 22 35 14 13 -5 50 -9 81 -8 l57 1 -73 19 c-40 10
-77 21 -82 24 -10 6 -1 43 13 52 6 4 7 1 2 -8 -7 -12 -6 -12 7 -1 17 14 91 8
96 -7 2 -6 10 -7 18 -4 8 3 14 -1 14 -7 0 -9 6 -8 18 3 10 10 21 14 25 11 4
-4 2 9 -4 27 -17 59 -19 125 -5 144 13 18 14 17 27 -6 7 -13 15 -31 16 -39 1
-8 4 -27 6 -43 7 -48 14 -39 16 23 1 33 -3 68 -8 78 -15 29 -49 34 -72 11 -24
-24 -26 -120 -4 -163 14 -26 14 -28 -3 -21 -104 45 -167 43 -185 -6 -6 -16
-15 -29 -19 -29 -4 0 -23 -14 -42 -31 l-35 -30 6 49 c4 41 2 52 -13 63 -44 32
-66 94 -46 126 6 10 15 10 40 1 48 -18 80 -1 133 70 l47 62 16 -25 c36 -55
116 -13 116 62 0 52 -23 95 -74 140 -85 75 -209 84 -331 24 -72 -36 -107 -72
-142 -148 -22 -48 -26 -51 -44 -40 -10 6 -19 15 -19 18 0 16 81 128 111 153
110 94 302 117 415 51 81 -47 149 -145 161 -230 8 -61 27 -58 21 3 -10 101
-84 204 -182 252 -182 90 -413 18 -520 -162 -18 -32 -37 -54 -41 -50 -4 4 -5
-23 -3 -59 3 -61 1 -67 -21 -77 l-24 -11 5 73 c4 58 11 84 36 128 63 110 186
195 322 224 130 27 245 -4 340 -92 79 -73 122 -153 145 -270 5 -26 2 -32 -13
-36 -30 -8 -52 -50 -58 -109 -5 -55 8 -47 21 14 7 34 54 82 68 68 5 -5 10 -27
11 -50 1 -22 5 -43 8 -46 10 -10 48 -14 48 -4 0 19 59 9 70 -12 18 -32 8 -62
-30 -86 -70 -44 -76 -50 -64 -63 7 -6 37 -14 68 -17 44 -4 61 -2 75 11 13 12
30 15 60 11 49 -6 69 -15 95 -44 l19 -21 -67 2 c-55 2 -70 -1 -77 -15 -13 -22
-36 -21 -110 4 -33 12 -62 19 -65 16 -2 -2 22 -18 55 -36 67 -36 114 -40 133
-12 12 16 22 18 85 12 40 -4 78 -12 85 -19 24 -24 28 -11 9 26 -11 21 -38 55
-60 75 -35 31 -48 37 -86 37 -25 0 -45 3 -45 8 0 19 34 52 83 80 35 20 58 40
65 59 12 33 23 93 17 93 -21 0 -119 -77 -129 -102 -18 -43 -30 -19 -22 45 6
48 3 57 -31 115 -40 67 -58 78 -59 35 0 -16 -4 -47 -8 -70 -8 -39 -6 -43 35
-88 38 -41 44 -53 43 -90 0 -24 -10 -58 -20 -76 -19 -33 -22 -34 -82 -34 -69
-1 -82 9 -25 20 47 9 93 54 93 93 0 44 -34 82 -75 82 -18 0 -38 -7 -45 -15
-19 -22 -32 -18 -24 8 10 30 7 67 -8 85 -7 8 -18 42 -25 76 -30 144 -118 262
-240 323 -68 33 -84 37 -167 40 -68 2 -105 -2 -146 -15z m236 -148 c49 -17 87
-55 109 -108 19 -45 12 -91 -15 -106 -39 -21 -73 19 -44 52 10 10 14 21 11 24
-11 11 -39 -5 -44 -26 -6 -23 -19 -26 -115 -34 -113 -9 -154 -44 -141 -120 3
-20 2 -36 -3 -36 -16 1 -65 79 -71 114 -5 32 -3 34 29 40 19 3 44 16 56 29 19
21 92 143 92 154 0 3 -19 3 -42 -1 -51 -8 -97 -35 -138 -83 -30 -34 -31 -37
-25 -102 4 -36 16 -81 26 -99 24 -41 24 -40 -6 -34 -14 2 -25 8 -25 13 0 4
-14 30 -31 58 -28 44 -30 53 -20 83 18 55 82 129 139 161 81 45 169 53 258 21z
m-193 -61 c-7 -2 -13 -13 -13 -22 0 -10 -15 -35 -32 -55 -26 -30 -39 -37 -60
-34 l-27 3 16 33 c18 38 78 82 108 81 11 0 14 -3 8 -6z m-228 -194 c-4 -5 -3
-9 2 -9 4 0 16 -12 26 -26 15 -20 16 -28 7 -39 -7 -8 -16 -12 -21 -9 -28 17
-50 11 -64 -16 -8 -16 -15 -36 -15 -44 0 -8 -14 -25 -30 -38 -17 -13 -42 -33
-57 -45 -14 -13 -30 -20 -35 -17 -6 4 -5 10 3 15 8 5 11 9 7 9 -4 0 6 26 22
59 17 32 30 63 30 69 0 6 16 23 35 38 32 24 35 31 35 77 l0 51 30 -33 c17 -18
28 -37 25 -42z m363 21 c3 -7 0 -10 -7 -6 -6 4 -9 2 -6 -7 7 -17 -24 -46 -56
-52 -39 -8 -79 4 -79 25 0 19 14 28 75 45 49 14 68 12 73 -5z m572 -45 c15
-44 5 -62 -21 -39 -16 15 -23 55 -12 77 7 13 21 -3 33 -38z m-1164 -20 c10 -9
10 -51 0 -85 -13 -46 -19 -60 -27 -60 -5 0 -6 -7 -3 -15 4 -8 2 -15 -4 -15
-21 0 -29 136 -10 172 9 19 25 20 44 3z m1299 -76 c-10 -19 -22 -29 -31 -25
-7 3 -13 2 -11 -2 1 -4 -1 -7 -4 -7 -3 0 -13 -6 -23 -14 -14 -12 -16 -12 -10
3 3 9 10 16 14 16 5 0 11 8 15 19 5 16 37 38 58 40 4 1 0 -13 -8 -30z m-1068
-120 c28 -44 30 -49 12 -49 -11 0 -33 19 -53 47 -28 39 -32 50 -22 65 10 18
12 18 21 2 6 -9 24 -39 42 -65z m-68 -5 c23 -38 26 -48 12 -40 -5 4 -40 2 -77
-3 -38 -6 -69 -9 -71 -7 -2 2 87 68 114 85 0 1 10 -15 22 -35z m775 -60 c23
-23 19 -51 -9 -70 -24 -16 -27 -16 -45 1 -25 22 -26 61 -2 74 24 15 38 13 56
-5z m-936 -21 c4 -26 -37 -57 -62 -47 -19 7 -21 45 -4 62 20 20 63 10 66 -15z
m352 -132 c-6 -12 -15 -19 -21 -16 -5 4 -8 1 -7 -7 4 -16 -50 -23 -71 -9 -18
12 -6 45 14 37 8 -3 15 -1 15 4 0 7 67 19 78 13 2 -1 -1 -11 -8 -22z m379
-161 c11 -5 29 -10 40 -10 l20 0 -20 -34 c-27 -46 -76 -94 -120 -116 -42 -22
-155 -47 -166 -37 -4 4 0 28 9 52 17 45 12 91 -12 120 -9 10 -7 20 5 39 19 29
17 28 95 27 30 -1 66 5 80 12 23 13 26 12 37 -14 7 -16 21 -33 32 -39z m-396
-31 c-22 -37 -83 -79 -83 -56 0 20 39 67 64 77 35 15 39 11 19 -21z m137 -34
c9 5 3 -65 -6 -74 -9 -10 -24 23 -24 55 0 34 13 55 18 30 2 -9 7 -14 12 -11z
m-1075 -355 c10 -16 95 -56 155 -73 65 -18 153 -31 350 -52 220 -24 325 -57
418 -132 54 -44 88 -95 100 -150 9 -39 8 -43 -9 -43 -12 0 -25 15 -37 43 -27
62 -92 120 -186 166 -95 47 -172 64 -391 86 -88 9 -187 20 -220 26 -63 11
-205 55 -218 68 -9 9 11 71 23 71 5 0 12 -5 15 -10z m2185 -2 c0 -7 3 -23 6
-36 6 -19 0 -25 -41 -43 -67 -30 -203 -55 -395 -74 -195 -19 -273 -34 -359
-69 -109 -44 -210 -133 -226 -198 -5 -18 -14 -28 -26 -28 -45 0 -5 106 66 175
88 85 196 122 440 149 312 35 402 56 485 112 39 27 50 29 50 12z m110 -141 c7
-81 10 -78 -110 -97 -234 -36 -798 -157 -885 -190 -44 -17 -105 -29 -109 -21
-9 14 23 68 65 109 24 24 76 58 114 76 115 55 177 67 475 96 181 18 336 61
405 113 18 14 21 14 29 -1 5 -9 12 -47 16 -85z m-2359 68 c24 -14 79 -36 121
-50 70 -22 127 -31 435 -65 218 -24 380 -96 449 -200 39 -58 29 -72 -38 -53
-251 72 -639 156 -1012 218 l-39 6 7 69 c6 73 13 100 26 100 4 0 28 -11 51
-25z m-71 -170 c17 -9 31 -15 32 -14 3 2 134 -19 198 -32 25 -4 61 -11 80 -13
19 -3 112 -21 205 -41 259 -54 252 -53 355 -80 8 -2 47 -14 85 -26 39 -13 77
-23 85 -24 13 0 15 -56 14 -445 -3 -810 -9 -1320 -17 -1320 -4 0 -63 16 -131
35 -68 19 -154 42 -192 51 -38 9 -78 18 -89 21 -11 2 -29 6 -40 8 -11 2 -51
11 -90 20 -38 9 -81 19 -95 21 -27 5 -249 60 -374 93 -43 12 -85 26 -92 32
-11 9 -14 83 -15 368 0 196 -2 410 -4 476 -6 187 -6 815 0 825 3 5 1 11 -4 15
-17 10 0 34 27 38 15 2 28 5 30 6 2 0 16 -6 32 -14z m2515 -392 c-3 -219 -5
-582 -5 -808 -1 -491 -3 -508 -35 -523 -27 -13 -134 -42 -180 -49 -16 -3 -37
-9 -45 -13 -8 -4 -33 -11 -55 -14 -22 -4 -57 -11 -79 -17 -21 -6 -48 -12 -60
-13 -11 -1 -28 -5 -36 -8 -17 -7 -92 -25 -130 -33 -14 -2 -43 -9 -65 -14 -22
-6 -56 -13 -75 -16 -19 -3 -80 -19 -135 -35 -55 -15 -116 -31 -135 -35 -19 -4
-39 -11 -45 -15 -5 -4 -20 -10 -32 -13 -22 -5 -29 7 -24 37 3 16 0 438 -5 626
-2 96 -6 383 -8 636 l-4 461 96 31 c53 17 131 38 172 47 41 8 107 23 145 32
39 10 74 16 79 15 5 -2 21 1 35 7 14 6 40 12 56 15 68 11 143 25 187 35 27 6
81 16 120 22 89 13 104 16 148 28 19 5 54 9 77 10 l42 1 -4 -397z m-1400 -750
c-5 -632 -11 -883 -18 -880 -24 8 -29 98 -23 482 3 220 9 600 12 845 3 245 8
452 10 460 4 12 7 12 16 -4 7 -13 8 -290 3 -903z m152 903 c4 -4 8 -155 9
-334 2 -597 16 -1427 25 -1443 7 -15 -2 -17 -87 -18 -65 -1 -94 1 -89 8 3 6 8
179 11 383 3 205 7 445 9 533 6 253 7 854 1 864 -4 5 -1 11 6 13 20 7 107 2
115 -6z m67 -3 c8 -29 12 -1771 4 -1779 -5 -4 -10 -5 -12 -3 -3 4 -8 280 -22
1229 -4 239 -4 465 0 503 7 65 19 85 30 50z"/>
<path d="M1681 3111 c-43 -6 -59 -13 -82 -39 -47 -52 -35 -132 19 -132 29 0
122 54 122 70 0 14 -12 12 -36 -5 -12 -8 -25 -11 -29 -7 -5 4 -5 2 -2 -4 7
-13 -49 -28 -65 -18 -15 10 -2 74 18 90 11 7 36 17 57 20 20 4 40 11 43 15 3
5 10 6 16 3 7 -4 8 -2 4 4 -4 7 -8 11 -9 11 -1 -1 -26 -5 -56 -8z"/>
<path d="M1917 2989 c-2 -8 -2 -43 0 -79 4 -47 1 -70 -10 -84 -16 -22 -53 -15
-43 9 7 20 -9 28 -24 11 -9 -12 -7 -19 10 -36 18 -18 19 -23 6 -48 -22 -43
-96 -111 -150 -139 -108 -55 -120 -57 -426 -57 -277 -1 -286 -2 -328 -24 -75
-40 -103 -119 -65 -183 27 -45 125 -67 153 -35 15 19 9 58 -9 64 -10 3 -12 -1
-9 -16 8 -31 -16 -48 -47 -34 -48 22 -24 87 43 121 65 32 131 41 307 39 154
-2 176 0 229 20 80 30 239 126 270 162 30 36 32 36 40 7 16 -65 125 -147 177
-134 23 6 84 -60 92 -99 6 -32 -22 -68 -46 -59 -21 9 -23 35 -2 35 8 0 15 7
15 15 0 20 -24 19 -44 -1 -21 -21 -20 -40 4 -64 25 -25 41 -25 74 1 19 15 26
30 26 55 0 51 -19 79 -114 174 -101 99 -126 151 -105 218 12 41 6 135 -10 161
-7 11 -9 11 -14 0z m-2 -231 c11 -50 33 -86 82 -140 49 -52 45 -59 -18 -28
-38 20 -92 82 -105 122 -6 21 13 78 26 78 5 0 12 -15 15 -32z m-342 -208 c-22
-20 -119 -30 -279 -30 -199 0 -257 -11 -320 -63 -42 -35 -55 -63 -43 -94 5
-13 5 -23 0 -23 -15 0 -32 28 -38 63 -7 46 18 88 71 119 40 23 46 23 271 20
127 -1 250 2 275 6 56 10 73 11 63 2z"/>
</g>
</svg>